<svg height="34" viewBox="0 0 34 34" width="34" xmlns="http://www.w3.org/2000/svg"><g fill="none" fill-rule="evenodd"><rect fill="#fff" fill-rule="evenodd" height="34" rx="1" width="34"/><path d="m23.7685746 12.5815192c.0786268.0410743.145739.1092524.1878646.1997127.0020084.0043128.003945.0086441.0058103.0129921.004084.0095311.0078561.0192274.0113064.0290714.0189968.0541555.0274235.1097747.0263539.164546v3.0858428h-.8235188v-2.3793955l-1.8746526 1.0064054-.3682888-.7908619 1.7339788-.9308848-1.7339788-.9308848.3682888-.790862zm.2313352 7.9643236c.0012676.0649082-.0108015.1310075-.0376603.1936174-.0201678.0470672-.0479397.090105-.082102.1270053-.0346701.0369815-.0716362.0648368-.1115729.0856995l-2.4668362 1.3243186-.3682888-.7908619 1.7339788-.9308849-1.7339788-.9308848.3682888-.7908619 1.8746526 1.0064054v-2.3793955h.8235188zm-12.6673382.008894 1.7339788.9308849-.3682888.7908619-2.4668362-1.3243186c-.0786268-.0410743-.145739-.1092524-.1878646-.1997127-.0020084-.0043128-.003945-.0086441-.0058103-.0129921-.0040839-.0095311-.0078561-.0192274-.0113064-.0290714-.0189968-.0541555-.0274235-.1097747-.0263539-.164546v-3.0858428h.8235188v2.3793955l1.8746526-1.0064054.3682888.7908619zm-.5089626-6.8604481v2.3793955h-.8235188v-3.0858428c-.00126755-.0649083.0108016-.1310075.0376603-.1936174.0201679-.0470672.0479397-.090105.082102-.1270053.0346702-.0369815.0716362-.0648367.1115729-.0856995l2.4668362-1.3243186.3682888.790862-1.7339788.9308848 1.7339788.9308848-.3682888.7908619zm5.9848376-4.64363688c.0572196-.03234559.1223954-.05065182.1915534-.05065182s.1343338.01830623.1915534.05065182l2.4631474 1.32233828-.3682888.7908619-1.8746526-1.0064054v2.3793955h-.8235188v-2.3793955l-1.8746526 1.0064054-.3682888-.7908619zm.3831068 15.43553848c-.0572196.0323456-.1223954.0506518-.1915534.0506518s-.1343338-.0183062-.1915534-.0506518l-2.4631474-1.3223383.3682888-.7908619 1.8746526 1.0064054v-2.3793955h.8235188v2.3793955l1.8746526-1.0064054.3682888.7908619zm.220206-7.6971647v2.3793955h-.8235188v-2.3793955l-2.2429414-1.2041209.3682888-.790862 2.286412 1.2274581 2.286412-1.2274581.3682888.790862z" fill="#5e5e5e" fill-rule="nonzero"/></g></svg>